<?xml version="1.0" encoding="utf-8"?>
<!-- Generator: Adobe Illustrator 24.1.2, SVG Export Plug-In . SVG Version: 6.00 Build 0)  -->
<svg version="1.1" id="Camada_1" xmlns="http://www.w3.org/2000/svg" xmlns:xlink="http://www.w3.org/1999/xlink" x="0px" y="0px"
	 viewBox="0 0 353 83" style="enable-background:new 0 0 353 83;" xml:space="preserve">
<style type="text/css">
	.st0{fill:#FFFFFF;}
	.st1{enable-background:new    ;}
</style>
<g id="OBJECTS">
	<g>
		<path class="st0" d="M53.8,27.8c-0.8,0.8-1.3,1.6-2.1,2.3l-8.6-1.8c-1.8-0.5-3.6,0.3-4.7,1.3L21.4,46.7l15.8-6l4.9,3.1
			c-0.3,0.3-0.3,0.8-0.5,0.8c-1,2.6-0.5,5.4,1.3,7.5l0.8,0.8l-7.8,10.6L46.6,56l0.8,0.8c2.1,2.1,4.9,2.3,7.5,1.3
			c0.3-0.3,0.8-0.3,0.8-0.5l2.9,5.2l-6,15.8l17.1-17.1c1.3-1.3,1.8-3.1,1.3-4.7l-1.6-8.6c0.8-0.8,1.6-1.3,2.3-2.1
			C83.1,34.5,99.2,10.6,94.3,5.4C89.4,0.3,65.2,16.3,53.8,27.8z M88.6,15.8c-1.3,1.3-3.4,1.3-4.7,0s-1.3-3.4,0-4.7s3.4-1.3,4.7,0
			S89.9,14.3,88.6,15.8z"/>
		<g class="st1">
			<path class="st0" d="M93.5,48.2c0.3,0.3,0.8,0.8,1.3,0.8c0.8,0.3,1,0.3,1.3,0.8c0.8,0,1,0.3,1.8,0.3s1,0,1.3,0
				c2.1,0,3.4-0.3,4.1-1c1-0.8,1.3-1.8,1.3-3.1c0-0.8,0-1.3-0.3-1.8c-0.3-0.3-0.8-1-1-1.3c-0.3-0.3-1-0.8-1.8-1.3
				c-0.8-0.3-1.3-1-2.3-1.3c-1-0.8-2.1-1-2.9-1.8c-0.8-0.8-1.3-1-1.8-1.8c-0.3-0.8-0.8-1-1-1.8c0-0.8,0-1.6,0-2.3
				c0-1,0.3-2.1,0.8-2.9c0.3-0.8,1-1.3,1.8-2.1s1.8-1,2.3-1.3c1-0.3,2.1-0.3,3.1-0.3c2.1,0,3.4,0.3,4.9,0.8V29
				c-1.3-0.8-3.1-1.3-5.2-1.3c-0.8,0-1.3,0-2.1,0.3c-0.8,0-1.3,0.3-1.8,0.8c-0.3,0.3-0.8,0.8-1,1.3c-0.3,0.8-0.3,1-0.3,1.8
				s0,1.3,0.3,1.8c0,0.3,0.3,1,1,1.3c0.3,0.3,1,0.8,1.8,1.3c0.8,0.3,1.3,0.8,2.3,1.3c1,0.8,2.1,1,2.9,1.8s1.3,1,2.1,1.8s1,1,1,1.8
				c0.3,0.8,0.3,1.3,0.3,2.1c0,1-0.3,2.1-0.8,2.9c-0.3,0.8-1,1.3-1.8,2.1s-1.8,1-2.9,1.3s-1.8,0.5-3.1,0.5c-0.3,0-0.8,0-1.3,0
				c-0.8,0-1,0-1.8-0.3s-1-0.3-1.8-0.3c-0.8-0.3-1-0.3-1.3-0.8L93.5,48.2L93.5,48.2z"/>
			<path class="st0" d="M115.3,42.3v9.9H113V27h6.5c1.3,0,2.3,0,3.4,0.3c1,0.3,1.8,0.8,2.3,1.3c0.8,0.8,1.3,1.3,1.8,2.1
				c0.3,1,0.8,2.1,0.8,3.1s-0.3,2.1-0.8,3.1c-0.3,1-1,1.8-1.8,2.3c-0.8,0.8-1.8,1.3-2.9,1.8c-1,0.3-2.3,0.8-3.9,0.8L115.3,42.3
				L115.3,42.3z M115.3,29v11.2h3.4c2.1,0,3.9-0.3,4.9-1.3c1-1,1.8-2.3,1.8-4.2c0-3.4-2.1-5.2-6.2-5.2L115.3,29L115.3,29z"/>
			<path class="st0" d="M146.4,52.1l-2.9-7.3h-10.9l-2.9,7.3h-2.3l9.3-25.2h2.3l9.3,25.2H146.4z M138.6,31.1c0-0.3,0-0.3-0.3-0.8
				c0-0.3,0-0.8-0.3-1l0,0c0,0.3,0,0.8-0.3,1c-0.3,0.3,0,0.8-0.3,0.8l-3.9,11.2h9.1L138.6,31.1z"/>
			<path class="st0" d="M169.5,51.1c-2.1,1-4.1,1.3-6.7,1.3c-1.8,0-3.4-0.3-4.9-1c-1.3-0.8-2.9-1.3-3.9-2.3s-1.8-2.3-2.3-3.9
				c-0.8-1.3-0.8-3.1-0.8-4.9c0-2.1,0.3-3.4,0.8-5.2c0.8-1.8,1.3-3.1,2.3-4.1c1-1.3,2.3-2.1,3.9-2.9s3.4-1,5.2-1
				c2.1,0,4.1,0.3,5.7,1v2.3c-1.8-1-3.9-1.3-5.7-1.3s-3.1,0.3-4.1,0.8c-1.3,0.8-2.3,1.3-3.1,2.3c-0.8,1-1.3,2.1-2.1,3.4
				c-0.3,1.3-0.8,2.9-0.8,4.7c0,1.3,0.3,2.9,0.8,4.1c0.3,1.3,1,2.3,1.8,3.4s1.8,1.8,2.9,2.1c1,0.8,2.3,0.8,4.1,0.8
				c2.3,0,4.7-0.8,6.2-1.3L169.5,51.1L169.5,51.1z"/>
			<path class="st0" d="M174.7,52.1V27h12.2V29H177v9.1h9.1v2.1H177v9.3h10.4v2.3L174.7,52.1L174.7,52.1z"/>
		</g>
		<g class="st1">
			<path class="st0" d="M223.4,31.4h-7v20.8h-6V31.4h-7v-4.7h20V31.4z"/>
			<path class="st0" d="M247.8,52.1h-6.5l-3.9-6.2c-0.3-0.3-0.8-1-0.8-1.3c-0.3-0.3-0.8-0.8-0.8-1c-0.3-0.3-0.8-0.3-0.8-0.8
				c0-0.5-1-0.3-1.3-0.3h-1.3v9.9h-5.7V27.2h9.1c6.2,0,9.1,2.1,9.1,7c0,0.8,0,1.8-0.3,2.3c-0.3,0.8-0.8,1.3-1,2.1
				c-0.3,0.8-1,1-1.8,1.3s-1.3,0.8-2.3,1l0,0c0.3,0,0.8,0.3,1,0.8c0.3,0.3,0.8,0.8,1,1s0.8,0.8,1,1s0.8,0.8,0.8,1L247.8,52.1z
				 M232.5,31.1v7h2.3c1.3,0,2.1-0.3,2.9-1c0.8-0.8,1-1.8,1-2.9c0-2.1-1.3-3.1-3.9-3.1H232.5z"/>
			<path class="st0" d="M272.5,52.1h-6.2l-1.8-5.7h-9.1l-1.8,5.7h-6.2l9.1-25.2h6.7L272.5,52.1z M262.9,42l-2.9-8.3
				c-0.3-0.8-0.3-1.3-0.3-2.1l0,0c0,0.8-0.3,1.3-0.3,2.1l-2.9,8.3H262.9z"/>
			<path class="st0" d="M294.5,27l-8.8,25.2h-6.2L271.2,27h6l5.2,17.4c0.3,1,0.3,1.8,0.8,2.3l0,0c0-0.8,0.3-1.8,0.8-2.3l5.2-17.4
				C288.5,27,294.5,27,294.5,27z"/>
			<path class="st0" d="M312.7,52.1h-15V27h14.3v4.7h-8.8v5.7h8.3v4.1h-8.3v5.7h9.3v4.9H312.7z"/>
			<path class="st0" d="M331.6,52.1h-15V27h5.7v20.8h9.3C331.6,47.5,331.6,52.1,331.6,52.1z"/>
		</g>
	</g>
</g>
<g id="DESIGNED_BY_FREPIK">
</g>
</svg>
